<?xml version="1.0" encoding="UTF-8"?>
<svg id="Layer_2" data-name="Layer 2" xmlns="http://www.w3.org/2000/svg" viewBox="0 0 5.94 8.5">
  <g id="Layer_1-2" data-name="Layer 1">
    <rect x="1.8" y="6.9" width="2" height="1.6"/>
    <path d="m5.6,3.8c-.3.4-.7.7-1.1,1-.2.2-.4.3-.5.5s-.1.4-.1.8H1.9c0-.5.1-1,.3-1.2.2-.2.5-.6,1-.9.3-.2.5-.4.6-.6.1-.2.2-.5.2-.8s-.1-.6-.3-.8-.4-.3-.8-.3c-.3,0-.5.1-.7.2-.2.1-.3.4-.3.7H0c0-.8.2-1.4.8-1.8.6-.4,1.2-.6,2.1-.6s1.7.2,2.2.7.8,1.1.8,1.9c.1.4,0,.8-.3,1.2Z"/>
  </g>
</svg>