<?xml version="1.0" encoding="UTF-8"?>
<svg width="14px" height="14px" viewBox="0 0 14 14" version="1.1" xmlns="http://www.w3.org/2000/svg" xmlns:xlink="http://www.w3.org/1999/xlink">
    <title>Combined Shape Copy</title>
    <g id="COVID-Chart" stroke="none" stroke-width="1" fill="none" fill-rule="evenodd">
        <g id="c19_chart-twoAxes--menus" transform="translate(-826.000000, -15.000000)" fill="#000000">
            <g id="Group">
                <g id="Share-Button" transform="translate(780.000000, 7.000000)">
                    <path d="M48.5,8 C49.8807119,8 51,9.11928813 51,10.5 C51,10.7245714 50.9703896,10.9422269 50.91486,11.1492753 L55.4838598,14.0214817 C55.9388767,13.4020562 56.6724857,13 57.5,13 C58.8807119,13 60,14.1192881 60,15.5 C60,16.8807119 58.8807119,18 57.5,18 C56.7652212,18 56.1044799,17.6830074 55.6470705,17.1783166 L50.9864294,19.23794 C50.9954011,19.3240686 51,19.4114972 51,19.5 C51,20.8807119 49.8807119,22 48.5,22 C47.1192881,22 46,20.8807119 46,19.5 C46,18.1192881 47.1192881,17 48.5,17 C49.3949523,17 50.1800702,17.4702573 50.621734,18.1771525 L55.0986367,16.1976377 C55.034421,15.9762155 55,15.7421275 55,15.5 C55,15.3502926 55.013159,15.2036587 55.0383834,15.0611918 L50.3883855,12.1383505 C49.9300181,12.666216 49.2539887,13 48.5,13 C47.1192881,13 46,11.8807119 46,10.5 C46,9.11928813 47.1192881,8 48.5,8 Z" id="Combined-Shape-Copy" transform="translate(53.000000, 15.000000) scale(-1, 1) translate(-53.000000, -15.000000) "></path>
                </g>
            </g>
        </g>
    </g>
</svg>
