<?xml version="1.0" encoding="utf-8"?>
<!-- Generator: Adobe Illustrator 26.1.0, SVG Export Plug-In . SVG Version: 6.00 Build 0)  -->
<svg version="1.1" id="Layer_1" xmlns="http://www.w3.org/2000/svg" xmlns:xlink="http://www.w3.org/1999/xlink" x="0px" y="0px"
	 width="69.4px" height="105.4px" viewBox="0 0 69.4 105.4" style="enable-background:new 0 0 69.4 105.4;" xml:space="preserve">
<style type="text/css">
	.st0{display:none;fill:#777777;}
	.st1{fill:#FFFFFF;}
	.st2{fill:none;stroke:#000000;stroke-width:2;stroke-miterlimit:10;}
	.st3{fill:none;stroke:#FFFFFF;stroke-width:2;stroke-miterlimit:10;}
</style>
<g id="Layer_1_00000003087939380524767180000007269768433216718003_">
	<rect y="0.2" class="st0" width="80" height="119"/>
	<g>
		<path d="M21.5,14.2h-13v-3h13V14.2z"/>
		<path d="M13.5,6.2h3v13h-3"/>
	</g>
	<g>
		<path class="st1" d="M51.5,14.4h-13v-3h13V14.4z"/>
		<path class="st1" d="M43.5,6.4h3v13h-3"/>
	</g>
	<g>
		<line class="st2" x1="10.5" y1="38.2" x2="19.5" y2="47.2"/>
		<line class="st2" x1="19.5" y1="38.2" x2="10.5" y2="47.2"/>
	</g>
	<g>
		<line class="st3" x1="40.5" y1="38.4" x2="49.5" y2="47.4"/>
		<line class="st3" x1="49.5" y1="38.4" x2="40.5" y2="47.4"/>
	</g>
	<path d="M21.5,70.6h-0.6c-0.3,0-0.6-0.2-0.7-0.5l-0.4-0.9c-0.1-0.3-0.1-0.6,0.1-0.9l0.5-0.5c0.2-0.2,0.2-0.6,0-0.8l-0.8-0.8
		c-0.2-0.2-0.6-0.2-0.8,0l-0.5,0.5c-0.2,0.2-0.6,0.3-0.9,0.1l-0.9-0.4C16.2,66.3,16,66,16,65.7v-0.6c0-0.3-0.2-0.5-0.5-0.5h-1.1
		c-0.3,0-0.5,0.2-0.5,0.5v0.6c0,0.3-0.2,0.6-0.5,0.7l-0.9,0.4c-0.3,0.1-0.6,0.1-0.9-0.1l-0.5-0.5c-0.2-0.2-0.6-0.2-0.8,0L9.5,67
		c-0.2,0.2-0.2,0.6,0,0.8l0.5,0.5c0.2,0.2,0.3,0.6,0.1,0.9l-0.4,0.9c-0.1,0.4-0.4,0.6-0.7,0.6H8.4c-0.2,0-0.4,0.2-0.4,0.5v1.1
		c0,0.3,0.2,0.5,0.5,0.5h0.6c0.3,0,0.6,0.2,0.7,0.5l0.4,0.9c0.1,0.3,0.1,0.6-0.1,0.9l-0.5,0.5c-0.2,0.2-0.2,0.6,0,0.8l0.8,0.8
		c0.2,0.2,0.6,0.2,0.8,0l0.5-0.5c0.2-0.2,0.6-0.3,0.9-0.1l0.9,0.4c0.3,0.1,0.5,0.4,0.5,0.7v0.6c0,0.3,0.2,0.5,0.5,0.5h1.1
		c0.3,0,0.5-0.2,0.5-0.5v-0.6c0-0.3,0.2-0.6,0.5-0.7l0.9-0.4c0.3-0.1,0.6-0.1,0.9,0.1l0.5,0.5c0.2,0.2,0.6,0.2,0.8,0l0.8-0.8
		c0.2-0.2,0.2-0.6,0-0.8L20,75.1c-0.2-0.2-0.3-0.6-0.1-0.9l0.4-0.9c0.1-0.3,0.4-0.5,0.7-0.5h0.6c0.3,0,0.5-0.2,0.5-0.5v-1.1
		C22,70.9,21.9,70.6,21.5,70.6z M17.8,71.8c0,1.5-1.2,2.7-2.7,2.7s-2.7-1.2-2.7-2.7s1.2-2.7,2.7-2.7S17.8,70.3,17.8,71.8z"/>
	<path class="st1" d="M51.5,70.8H51c-0.3,0-0.6-0.2-0.7-0.5l-0.4-0.9c-0.1-0.3-0.1-0.6,0.1-0.9l0.5-0.5c0.2-0.2,0.2-0.6,0-0.8
		l-0.8-0.8c-0.2-0.2-0.6-0.2-0.8,0l-0.5,0.5c-0.2,0.2-0.6,0.3-0.9,0.1l-0.9-0.4c-0.3-0.1-0.5-0.4-0.5-0.7v-0.6
		c0-0.3-0.2-0.5-0.5-0.5h-1.1c-0.3,0-0.5,0.2-0.5,0.5v0.6c0,0.3-0.2,0.6-0.5,0.7L42.6,67c-0.3,0.1-0.6,0.1-0.9-0.1l-0.5-0.5
		c-0.2-0.2-0.6-0.2-0.8,0l-0.8,0.8c-0.2,0.2-0.2,0.6,0,0.8l0.5,0.5c0.2,0.2,0.3,0.6,0.1,0.9l-0.4,0.9c-0.1,0.3-0.4,0.5-0.7,0.5h-0.6
		c-0.3,0-0.5,0.2-0.5,0.5v1.1c0,0.3,0.2,0.5,0.5,0.5H39c0.3,0,0.6,0.2,0.7,0.5l0.4,0.9c0.1,0.3,0.1,0.6-0.1,0.9l-0.5,0.5
		c-0.2,0.2-0.2,0.6,0,0.8l0.8,0.8c0.2,0.2,0.6,0.2,0.8,0l0.5-0.5c0.2-0.2,0.6-0.3,0.9-0.1l0.9,0.4c0.3,0.1,0.5,0.4,0.5,0.7v0.6
		c0,0.3,0.2,0.5,0.5,0.5h1.1c0.3,0,0.5-0.2,0.5-0.5v-0.6c0-0.3,0.2-0.6,0.5-0.7l0.9-0.4c0.3-0.1,0.6-0.1,0.9,0.1l0.5,0.5
		c0.2,0.2,0.6,0.2,0.8,0l0.8-0.8c0.2-0.2,0.2-0.6,0-0.8L50,75.3c-0.2-0.2-0.3-0.6-0.1-0.9l0.4-0.9c0.1-0.3,0.4-0.5,0.7-0.5h0.6
		c0.3,0,0.5-0.2,0.5-0.5v-1.1C52,71.1,51.8,70.8,51.5,70.8z M47.7,71.9c0,1.5-1.2,2.7-2.7,2.7s-2.7-1.2-2.7-2.7s1.2-2.7,2.7-2.7
		S47.7,70.5,47.7,71.9z"/>
</g>
<g>
	<path class="st1" d="M59,0.9v28H31v-28L59,0.9 M60-0.1h-1H31h-1v1v28v1h1h28h1v-1v-28V-0.1L60-0.1z"/>
</g>
<g>
	<path d="M29,0.9v28H1v-28L29,0.9 M30-0.1h-1H1H0v1v28v1h1h28h1v-1v-28V-0.1L30-0.1z"/>
</g>
<g>
	<path d="M29,29.9v28H1v-28H29 M30,28.9h-1H1H0v1v28v1h1h28h1v-1v-28V28.9L30,28.9z"/>
</g>
<g>
	<path class="st1" d="M59,29.9v28H31v-28H59 M60,28.9h-1H31h-1v1v28v1h1h28h1v-1v-28V28.9L60,28.9z"/>
</g>
<g>
	<path d="M29,58.9v28H1v-28H29 M30,57.9h-1H1H0v1v28v1h1h28h1v-1v-28V57.9L30,57.9z"/>
</g>
<g>
	<path class="st1" d="M59,58.9v28H31v-28H59 M60,57.9h-1H31h-1v1v28v1h1h28h1v-1v-28V57.9L60,57.9z"/>
</g>
</svg>
