<?xml version="1.0" encoding="utf-8"?>
<!-- Generator: Adobe Illustrator 26.2.1, SVG Export Plug-In . SVG Version: 6.00 Build 0)  -->
<svg version="1.1" id="Layer_1" xmlns="http://www.w3.org/2000/svg" xmlns:xlink="http://www.w3.org/1999/xlink" x="0px" y="0px"
	 width="73.4px" height="455.8px" viewBox="0 0 73.4 455.8" style="enable-background:new 0 0 73.4 455.8;" xml:space="preserve">
<style type="text/css">
	.st0{display:none;fill:#636363;}
	.st1{fill:none;stroke:#000000;stroke-miterlimit:10;}
	.st2{fill:#231F20;}
	.st3{opacity:0.5;fill:#231F20;enable-background:new    ;}
	.st4{opacity:0.5;fill:none;stroke:#231F20;stroke-miterlimit:10;enable-background:new    ;}
	.st5{fill:#FFFFFF;}
	.st6{fill:none;stroke:#FFFFFF;stroke-miterlimit:10;}
	.st7{opacity:0.5;fill:#FFFFFF;enable-background:new    ;}
	.st8{opacity:0.5;fill:none;stroke:#FFFFFF;stroke-miterlimit:10;enable-background:new    ;}
</style>
<g id="Layer_1_00000114760590902824458410000005819275951227205256_">
	<rect x="-11.4" y="-11.2" class="st0" width="93.1" height="469.7"/>
	<g id="Layer_2_1_">
	</g>
	<path d="M13,6.5c3.3,0,6,2.7,6,6s-2.7,6-6,6s-6-2.7-6-6S9.7,6.5,13,6.5z M13,5.5c-3.9,0-7,3.1-7,7s3.1,7,7,7s7-3.1,7-7
		S16.9,5.5,13,5.5z"/>
	<path class="st1" d="M18,17.5l4,4"/>
	<path d="M19.5,50.5h1v-16h-1V50.5z"/>
	<path d="M7.5,42.5h13v-8h-13l3,4L7.5,42.5z"/>
	<path class="st2" d="M21,102.5v-6h4l-7-7l-7,7h4v6H21z"/>
	<path class="st3" d="M12,99.5v5v1h1h1.6l-4.6,4.6l-4.6-4.6H7h1v-1v-5H12z M13,98.5H7v6H3l7,7l7-7h-4V98.5z"/>
	<path d="M18.7,120.5l-0.7,0.7l-2.3,2.1L5,133.9v4.6h4.6l10.6-10.8l2.1-2.2l0.7-0.7L18.7,120.5z M9.2,137.5H6v-3.2L16.5,124l2.9,3
		L9.2,137.5z"/>
	<path class="st4" d="M8,138h14"/>
	<path d="M20.5,389.5h-0.6c-0.3,0-0.6-0.2-0.7-0.5l-0.4-0.9c-0.1-0.3-0.1-0.6,0.1-0.9l0.5-0.5c0.2-0.2,0.2-0.6,0-0.8l-0.8-0.8
		c-0.2-0.2-0.6-0.2-0.8,0l-0.5,0.5c-0.2,0.2-0.6,0.3-0.9,0.1l-0.9-0.4c-0.3-0.1-0.5-0.4-0.5-0.7V384c0-0.3-0.2-0.5-0.5-0.5h-1.1
		c-0.3,0-0.5,0.2-0.5,0.5v0.6c0,0.3-0.2,0.6-0.5,0.7l-0.9,0.4c-0.3,0.1-0.6,0.1-0.9-0.1l-0.5-0.5c-0.2-0.2-0.6-0.2-0.8,0l-0.8,0.8
		c-0.2,0.2-0.2,0.6,0,0.8l0.5,0.5c0.2,0.2,0.3,0.6,0.1,0.9L8.7,389c-0.1,0.3-0.4,0.5-0.7,0.5H7.5c-0.3,0-0.5,0.2-0.5,0.5v1.1
		c0,0.3,0.2,0.5,0.5,0.5h0.6c0.3,0,0.6,0.2,0.7,0.5l0.4,0.9c0.1,0.3,0.1,0.6-0.1,0.9l-0.5,0.5c-0.2,0.2-0.2,0.6,0,0.8l0.8,0.8
		c0.2,0.2,0.6,0.2,0.8,0l0.5-0.5c0.2-0.2,0.6-0.3,0.9-0.1l0.9,0.4c0.3,0.1,0.5,0.4,0.5,0.7v0.6c0,0.3,0.2,0.5,0.5,0.5h1.1
		c0.3,0,0.5-0.2,0.5-0.5v-0.6c0-0.3,0.2-0.6,0.5-0.7l0.9-0.4c0.3-0.1,0.6-0.1,0.9,0.1l0.5,0.5c0.2,0.2,0.6,0.2,0.8,0l0.8-0.8
		c0.2-0.2,0.2-0.6,0-0.8l-0.5-0.5c-0.2-0.2-0.3-0.6-0.1-0.9l0.4-0.9c0.1-0.3,0.4-0.5,0.7-0.5h0.6c0.3,0,0.5-0.2,0.5-0.5V390
		C21,389.7,20.9,389.5,20.5,389.5z M16.8,390.5c0,1.5-1.2,2.7-2.7,2.7s-2.7-1.2-2.7-2.7s1.2-2.7,2.7-2.7S16.8,389,16.8,390.5z"/>
	<path d="M9.5,184h-5v10h5V184z"/>
	<path class="st1" d="M7,180.5v17"/>
	<path d="M16.5,181h-5v10h5V181z"/>
	<path class="st1" d="M14,177.5v17"/>
	<path d="M23.5,184h-5v10h5V184z"/>
	<path class="st1" d="M21,180.5v17"/>
	<path d="M21.2,65.1c0,0,2.2,2.2,2.6,2.6c0.5,0.5,0.1,1.1-0.5,1.1c-0.5,0-1.5,0-1.5,0l-4.9,4.9l-0.1,3.2c0,0,0,0.4-0.4,0.7
		c-0.4,0.2-0.9-0.2-0.9-0.2l-2.6-2.6l-5,5l-2.1,0.8l0.8-2.1l5-5L9,70.9c0,0-0.4-0.4-0.2-0.9c0.2-0.4,0.7-0.4,0.7-0.4l3.1-0.1
		l4.9-4.9c0,0,0-1,0-1.5c0-0.6,0.6-0.9,1.1-0.5C19,63,21.2,65.1,21.2,65.1z"/>
	<path class="st4" d="M4,64.9h8"/>
	<path class="st4" d="M4,66.9h8"/>
	<path class="st4" d="M4,68.9h3"/>
	<path class="st4" d="M4,62.9h8"/>
	<path d="M22.2,150.6c0,0.6-0.5,1-1.2,1c-0.6,0-0.9-0.2-1.1-0.5c-0.1-0.2-0.2-0.5-0.2-0.8c0-0.2-0.2-0.4-0.5-0.4
		c-0.4,0-0.9,0.3-1.2,0.6c-0.7,0.6-1.1,1.8-1.4,2.7c-0.1,0.4-0.3,0.8-0.4,1.2h2c0.3,0,0.6,0,0.6,0.2c0,0.1,0,0.2-0.1,0.4
		c0,0.2-0.4,0.2-0.6,0.2H16c-0.9,2.7-1.9,5.5-2.8,8.3c-0.4,1.3-1,2.5-1.9,3.5c-1.1,1.1-2.7,1.8-4.1,1.8c-1.3,0-2.2-0.5-2.2-1.4
		c0-0.6,0.4-1.1,1.2-1.1c0.7,0,1.1,0.4,1.2,0.8c0,0.2,0,0.3,0,0.5c0,0.3,0,0.6,0.4,0.6s1-0.4,1.3-0.9c0.6-0.9,1.2-2.6,1.5-3.6
		c1-2.9,2-5.7,2.9-8.5H12c-0.3,0-0.5,0-0.5-0.2s0.1-0.3,0.1-0.4c0.1-0.2,0.3-0.2,0.6-0.2h1.5c0.5-1.4,1.1-2.8,2.3-3.8
		c1-0.8,2.6-1.5,3.9-1.5C21.3,149.2,22.2,149.6,22.2,150.6z"/>
	<path d="M19.8,158.2l1.6-2.7h1.5l-2.4,3.6l2.5,3.7h-1.4l-1.7-2.7l-1.7,2.7h-1.5l2.5-3.7l-2.4-3.6h1.4L19.8,158.2z"/>
	<path class="st1" d="M7.5,148.2v5"/>
	<path class="st1" d="M5,150.7h5"/>
	<path d="M5.5,209v11h14l3,4v-4.2V209H5.5z M7.5,211h5v1h-5V211z M15.5,218h-8v-1h8V218z M15.5,216h-8v-1h8V216z M15.5,214h-8v-1h8
		V214z M20.5,218h-3v-1h3V218z M20.5,216h-3v-1h3V216z M20.5,214h-3v-1h3V214z"/>
	<path d="M20.6,354H7.4c-1.1,0-1.9,0.9-1.9,1.9v11.1c0,1.1,0.9,1.9,1.9,1.9h13.2c1.1,0,1.9-0.9,1.9-1.9v-11.1
		C22.5,354.9,21.6,354,20.6,354z M10.4,365.8h-3v-1h3V365.8z M10.4,363.9h-3v-1h3V363.9z M10.4,361.9h-3v-1h3V361.9z M10.4,359.9h-3
		v-1h3V359.9z M10.4,357.9h-3v-1h3V357.9z M20.4,365.8h-8v-1h8V365.8z M20.4,363.9h-8v-1h8V363.9z M20.4,361.9h-8v-1h8V361.9z
		 M20.4,359.9h-8v-1h8V359.9z M20.4,357.9h-8v-1h8V357.9z"/>
	<rect x="13.5" y="237.5" width="1" height="6.4"/>
	<rect x="13.5" y="247.1" width="1" height="6.4"/>
	<rect x="15.6" y="245" width="6.4" height="1"/>
	<rect x="6" y="245" width="6.4" height="1"/>
	<path class="st2" d="M14,329c1.1,0,2-0.9,2-2s-0.9-2-2-2s-2,0.9-2,2S12.9,329,14,329z"/>
	<path class="st2" d="M14,334.5c1.1,0,2-0.9,2-2s-0.9-2-2-2s-2,0.9-2,2C12,333.5,12.9,334.5,14,334.5z"/>
	<path class="st2" d="M14,340c1.1,0,2-0.9,2-2s-0.9-2-2-2s-2,0.9-2,2C12,339,12.9,340,14,340z"/>
	<path id="SVGID_5_" d="M14,271.5c1.7,0,3,1.3,3,3s-1.3,3-3,3s-3-1.3-3-3S12.4,271.5,14,271.5z M14,269.5c-2.8,0-5,2.2-5,5
		s2.2,5,5,5s5-2.2,5-5S16.8,269.5,14,269.5z M14,267.5c3.7,0,7,2.3,10,7c-3,4.7-6.3,7-10,7s-7-2.3-10-7C7,269.8,10.4,267.5,14,267.5
		z"/>
	<path d="M1.6,297v13h24.7v-13H1.6z M19.2,299.4h1.1v1.1h-1.1V299.4z M7.6,304.1h1.1v1.1H7.6V304.1z M6.5,303v-1.1h1.1v1.1H6.5z
		 M8.8,303v-1.1h1.1v1.1H8.8z M9.9,304.1H11v1.1H9.9V304.1z M11.1,303v-1.1h1.1v1.1H11.1z M12.2,304.1h1.1v1.1h-1.1V304.1z
		 M13.4,303v-1.1h1.1v1.1H13.4z M14.6,304.1h1.1v1.1h-1.1V304.1z M15.7,303v-1.1h1.1v1.1H15.7z M16.9,304.1H18v1.1h-1.1V304.1z
		 M18,303v-1.1h1.1v1.1H18z M19.2,304.1h1.1v1.1h-1.1V304.1z M20.3,303v-1.1h1.1v1.1H20.3z M16.9,299.4H18v1.1h-1.1V299.4z
		 M14.6,299.4h1.1v1.1h-1.1V299.4z M12.2,299.4h1.1v1.1h-1.1V299.4z M9.9,299.4H11v1.1H9.9V299.4z M7.6,299.4h1.1v1.1H7.6V299.4z
		 M4.2,299.4h1.2l0,0h1.1l0,0v1.1l0,0H5.4l0,0H4.2V299.4z M5.4,301.7v1.1H4.2v-1.1H5.4z M5.4,307.7H4.2v-1.1h1.1V307.7z M5.4,305.4
		H4.2v-1.1h1.2l0,0h1.1l0,0v1.1l0,0H5.4L5.4,305.4z M7.6,307.7H6.5v-1.1h1.1C7.6,306.6,7.6,307.7,7.6,307.7z M19.2,307.7h-1.1H17
		h-1.1h-1.2h-1.1h-1.1H11h-1H8.9v-1.1H10h1.1h1.1h1.1h1.1h1.1h1.1h1.1h1.1v1.1H19.2z M21.5,307.7h-1.1v-1.1h1.1V307.7z M23.8,307.7
		h-1.1v-1.1h1.1L23.8,307.7L23.8,307.7z M23.8,305.4h-1.2l0,0h-1.1l0,0l0,0v-1.1l0,0l0,0h1.1l0,0h1.2L23.8,305.4L23.8,305.4z
		 M22.6,303v-1.1h1.1v1.1H22.6z M23.8,300.7h-1.2l0,0h-1.1l0,0l0,0v-1.1l0,0l0,0h1.1l0,0h1.2L23.8,300.7L23.8,300.7z"/>
</g>
<path class="st5" d="M35.5,209v11h14l3,4v-4.2V209H35.5z M37.5,211h5v1h-5V211z M45.5,218h-8v-1h8V218z M45.5,216h-8v-1h8V216z
	 M45.5,214h-8v-1h8V214z M50.5,218h-3v-1h3V218z M50.5,216h-3v-1h3V216z M50.5,214h-3v-1h3V214z"/>
<path class="st5" d="M31.6,297v13h24.7v-13H31.6z M49.2,299.4h1.1v1.1h-1.1V299.4z M37.6,304.1h1.1v1.1h-1.1V304.1z M36.5,303v-1.1
	h1.1v1.1H36.5z M38.8,303v-1.1h1.1v1.1H38.8z M39.9,304.1H41v1.1h-1.1V304.1z M41.1,303v-1.1h1.1v1.1H41.1z M42.2,304.1h1.1v1.1
	h-1.1V304.1z M43.4,303v-1.1h1.1v1.1H43.4z M44.6,304.1h1.1v1.1h-1.1V304.1z M45.7,303v-1.1h1.1v1.1H45.7z M46.9,304.1H48v1.1h-1.1
	V304.1z M48,303v-1.1h1.1v1.1H48z M49.2,304.1h1.1v1.1h-1.1V304.1z M50.3,303v-1.1h1.1v1.1H50.3z M46.9,299.4H48v1.1h-1.1V299.4z
	 M44.6,299.4h1.1v1.1h-1.1V299.4z M42.2,299.4h1.1v1.1h-1.1V299.4z M39.9,299.4H41v1.1h-1.1V299.4z M37.6,299.4h1.1v1.1h-1.1V299.4z
	 M34.2,299.4h1.2l0,0h1.1l0,0v1.1l0,0h-1.1l0,0h-1.2L34.2,299.4L34.2,299.4z M35.4,301.7v1.1h-1.1v-1.1H35.4z M35.4,307.7h-1.1v-1.1
	h1.1V307.7z M35.4,305.4h-1.2v-1.1h1.2l0,0h1.1l0,0v1.1l0,0H35.4L35.4,305.4z M37.6,307.7h-1.1v-1.1h1.1
	C37.6,306.6,37.6,307.7,37.6,307.7z M49.2,307.7h-1.1H47h-1.1h-1.2h-1.1h-1.1H41h-1h-1.1v-1.1H40h1.1h1.1h1.1h1.1h1.1h1.1h1.1h1.1
	v1.1H49.2z M51.5,307.7h-1.1v-1.1h1.1V307.7z M53.8,307.7h-1.1v-1.1h1.1L53.8,307.7L53.8,307.7z M53.8,305.4h-1.2l0,0h-1.1l0,0l0,0
	v-1.1l0,0l0,0h1.1l0,0h1.2L53.8,305.4L53.8,305.4z M52.6,303v-1.1h1.1v1.1H52.6z M53.8,300.7h-1.2l0,0h-1.1l0,0l0,0v-1.1l0,0l0,0
	h1.1l0,0h1.2L53.8,300.7L53.8,300.7z"/>
<g>
	<path d="M28-0.5v28H0v-28H28 M29-1.5h-1H0h-1v1v28v1h1h28h1v-1v-28V-1.5L29-1.5z"/>
</g>
<g>
	<path d="M28,28.5v28H0v-28H28 M29,27.5h-1H0h-1v1v28v1h1h28h1v-1v-28V27.5L29,27.5z"/>
</g>
<g>
	<path d="M28,57.5v28H0v-28H28 M29,56.5h-1H0h-1v1v28v1h1h28h1v-1v-28V56.5L29,56.5z"/>
</g>
<g>
	<path d="M28,86.5v28H0v-28H28 M29,85.5h-1H0h-1v1v28v1h1h28h1v-1v-28V85.5L29,85.5z"/>
</g>
<g>
	<path d="M28,115.5v28H0v-28H28 M29,114.5h-1H0h-1v1v28v1h1h28h1v-1v-28V114.5L29,114.5z"/>
</g>
<g>
	<path d="M28,144.5v28H0v-28H28 M29,143.5h-1H0h-1v1v28v1h1h28h1v-1v-28V143.5L29,143.5z"/>
</g>
<g>
	<path d="M28,173.5v28H0v-28H28 M29,172.5h-1H0h-1v1v28v1h1h28h1v-1v-28V172.5L29,172.5z"/>
</g>
<g>
	<path d="M28,202.5v28H0v-28H28 M29,201.5h-1H0h-1v1v28v1h1h28h1v-1v-28V201.5L29,201.5z"/>
</g>
<g>
	<path d="M28,231.5v28H0v-28H28 M29,230.5h-1H0h-1v1v28v1h1h28h1v-1v-28V230.5L29,230.5z"/>
</g>
<g>
	<path d="M28,260.5v28H0v-28H28 M29,259.5h-1H0h-1v1v28v1h1h28h1v-1v-28V259.5L29,259.5z"/>
</g>
<g>
	<path d="M28,289.5v28H0v-28H28 M29,288.5h-1H0h-1v1v28v1h1h28h1v-1v-28V288.5L29,288.5z"/>
</g>
<g>
	<path d="M28,318.5v28H0v-28H28 M29,317.5h-1H0h-1v1v28v1h1h28h1v-1v-28V317.5L29,317.5z"/>
</g>
<g>
	<path d="M28,347.5v28H0v-28H28 M29,346.5h-1H0h-1v1v28v1h1h28h1v-1v-28V346.5L29,346.5z"/>
</g>
<g>
	<path d="M28,405.7v28H0v-28H28 M29,404.7h-1H0h-1v1v28v1h1h28h1v-1v-28V404.7L29,404.7z"/>
</g>
<g>
	<path class="st5" d="M58,405.7v28H30v-28H58 M59,404.7h-1H30h-1v1v28v1h1h28h1v-1v-28V404.7L59,404.7z"/>
</g>
<g>
	<path d="M28,376.5v28H0v-28H28 M29,375.5h-1H0h-1v1v28v1h1h28h1v-1v-28V375.5L29,375.5z"/>
</g>
<path class="st5" d="M43,6.5c3.3,0,6,2.7,6,6s-2.7,6-6,6s-6-2.7-6-6S39.7,6.5,43,6.5z M43,5.5c-3.9,0-7,3.1-7,7s3.1,7,7,7s7-3.1,7-7
	S46.9,5.5,43,5.5z"/>
<path class="st6" d="M48,17.5l4,4"/>
<path class="st5" d="M49.5,50.5h1v-16h-1V50.5z"/>
<path class="st5" d="M37.5,42.5h13v-8h-13l3,4L37.5,42.5z"/>
<path class="st5" d="M51,102.5v-6h4l-7-7l-7,7h4v6H51z"/>
<path class="st7" d="M42,99.5v5v1h1h1.6l-4.6,4.6l-4.6-4.6H37h1v-1v-5H42z M43,98.5h-6v6h-4l7,7l7-7h-4V98.5z"/>
<path class="st5" d="M48.7,120.5l-0.7,0.7l-2.3,2.1L35,133.9v4.6h4.6l10.6-10.8l2.1-2.2l0.7-0.7L48.7,120.5z M39.2,137.5H36v-3.2
	L46.5,124l2.9,3L39.2,137.5z"/>
<path class="st8" d="M38,138h14"/>
<path class="st5" d="M50.5,389.5h-0.6c-0.3,0-0.6-0.2-0.7-0.5l-0.4-0.9c-0.1-0.3-0.1-0.6,0.1-0.9l0.5-0.5c0.2-0.2,0.2-0.6,0-0.8
	l-0.8-0.8c-0.2-0.2-0.6-0.2-0.8,0l-0.5,0.5c-0.2,0.2-0.6,0.3-0.9,0.1l-0.9-0.4c-0.3-0.1-0.5-0.4-0.5-0.7V384c0-0.3-0.2-0.5-0.5-0.5
	h-1.1c-0.3,0-0.5,0.2-0.5,0.5v0.6c0,0.3-0.2,0.6-0.5,0.7l-0.9,0.4c-0.3,0.1-0.6,0.1-0.9-0.1l-0.5-0.5c-0.2-0.2-0.6-0.2-0.8,0
	l-0.8,0.8c-0.2,0.2-0.2,0.6,0,0.8l0.5,0.5c0.2,0.2,0.3,0.6,0.1,0.9l-0.4,0.9c-0.1,0.3-0.4,0.5-0.7,0.5h-0.5c-0.3,0-0.5,0.2-0.5,0.5
	v1.1c0,0.3,0.2,0.5,0.5,0.5h0.6c0.3,0,0.6,0.2,0.7,0.5l0.4,0.9c0.1,0.3,0.1,0.6-0.1,0.9l-0.5,0.5c-0.2,0.2-0.2,0.6,0,0.8l0.8,0.8
	c0.2,0.2,0.6,0.2,0.8,0l0.5-0.5c0.2-0.2,0.6-0.3,0.9-0.1l0.9,0.4c0.3,0.1,0.5,0.4,0.5,0.7v0.6c0,0.3,0.2,0.5,0.5,0.5h1.1
	c0.3,0,0.5-0.2,0.5-0.5v-0.6c0-0.3,0.2-0.6,0.5-0.7l0.9-0.4c0.3-0.1,0.6-0.1,0.9,0.1l0.5,0.5c0.2,0.2,0.6,0.2,0.8,0l0.8-0.8
	c0.2-0.2,0.2-0.6,0-0.8l-0.5-0.5c-0.2-0.2-0.3-0.6-0.1-0.9l0.4-0.9c0.1-0.3,0.4-0.5,0.7-0.5h0.6c0.3,0,0.5-0.2,0.5-0.5V390
	C51,389.7,50.9,389.5,50.5,389.5z M46.8,390.5c0,1.5-1.2,2.7-2.7,2.7s-2.7-1.2-2.7-2.7s1.2-2.7,2.7-2.7S46.8,389,46.8,390.5z"/>
<path class="st5" d="M39.5,184h-5v10h5V184z"/>
<path class="st6" d="M37,180.5v17"/>
<path class="st5" d="M46.5,181h-5v10h5V181z"/>
<path class="st6" d="M44,177.5v17"/>
<path class="st5" d="M53.5,184h-5v10h5V184z"/>
<path class="st6" d="M51,180.5v17"/>
<path class="st5" d="M51.2,65.1c0,0,2.2,2.2,2.6,2.6c0.5,0.5,0.1,1.1-0.5,1.1c-0.5,0-1.5,0-1.5,0l-4.9,4.9l-0.1,3.2
	c0,0,0,0.4-0.4,0.7c-0.4,0.2-0.9-0.2-0.9-0.2l-2.6-2.6l-5,5l-2.1,0.8l0.8-2.1l5-5L39,70.9c0,0-0.4-0.4-0.2-0.9
	c0.2-0.4,0.7-0.4,0.7-0.4l3.1-0.1l4.9-4.9c0,0,0-1,0-1.5c0-0.6,0.6-0.9,1.1-0.5C49,63,51.2,65.1,51.2,65.1z"/>
<path class="st8" d="M34,64.9h8"/>
<path class="st8" d="M34,66.9h8"/>
<path class="st8" d="M34,68.9h3"/>
<path class="st8" d="M34,62.9h8"/>
<path class="st5" d="M52.2,150.6c0,0.6-0.5,1-1.2,1c-0.6,0-0.9-0.2-1.1-0.5c-0.1-0.2-0.2-0.5-0.2-0.8c0-0.2-0.2-0.4-0.5-0.4
	c-0.4,0-0.9,0.3-1.2,0.6c-0.7,0.6-1.1,1.8-1.4,2.7c-0.1,0.4-0.3,0.8-0.4,1.2h2c0.3,0,0.6,0,0.6,0.2c0,0.1,0,0.2-0.1,0.4
	c0,0.2-0.4,0.2-0.6,0.2H46c-0.9,2.7-1.9,5.5-2.8,8.3c-0.4,1.3-1,2.5-1.9,3.5c-1.1,1.1-2.7,1.8-4.1,1.8c-1.3,0-2.2-0.5-2.2-1.4
	c0-0.6,0.4-1.1,1.2-1.1c0.7,0,1.1,0.4,1.2,0.8c0,0.2,0,0.3,0,0.5c0,0.3,0,0.6,0.4,0.6s1-0.4,1.3-0.9c0.6-0.9,1.2-2.6,1.5-3.6
	c1-2.9,2-5.7,2.9-8.5H42c-0.3,0-0.5,0-0.5-0.2s0.1-0.3,0.1-0.4c0.1-0.2,0.3-0.2,0.6-0.2h1.5c0.5-1.4,1.1-2.8,2.3-3.8
	c1-0.8,2.6-1.5,3.9-1.5C51.3,149.2,52.2,149.6,52.2,150.6z"/>
<path class="st5" d="M49.8,158.2l1.6-2.7h1.5l-2.4,3.6l2.5,3.7h-1.4l-1.7-2.7l-1.7,2.7h-1.5l2.5-3.7l-2.4-3.6h1.4L49.8,158.2z"/>
<path class="st6" d="M37.5,148.2v5"/>
<path class="st6" d="M35,150.7h5"/>
<rect x="43.5" y="237.5" class="st5" width="1" height="6.4"/>
<rect x="43.5" y="247.1" class="st5" width="1" height="6.4"/>
<rect x="45.6" y="245" class="st5" width="6.4" height="1"/>
<rect x="36" y="245" class="st5" width="6.4" height="1"/>
<path class="st5" d="M44,329c1.1,0,2-0.9,2-2s-0.9-2-2-2s-2,0.9-2,2S42.9,329,44,329z"/>
<path class="st5" d="M44,334.5c1.1,0,2-0.9,2-2s-0.9-2-2-2s-2,0.9-2,2C42,333.5,42.9,334.5,44,334.5z"/>
<path class="st5" d="M44,340c1.1,0,2-0.9,2-2s-0.9-2-2-2s-2,0.9-2,2C42,339,42.9,340,44,340z"/>
<path id="SVGID_00000150824354291457918630000002766888188005746620_" class="st5" d="M44,271.5c1.7,0,3,1.3,3,3s-1.3,3-3,3
	s-3-1.3-3-3S42.4,271.5,44,271.5z M44,269.5c-2.8,0-5,2.2-5,5s2.2,5,5,5s5-2.2,5-5S46.8,269.5,44,269.5z M44,267.5c3.7,0,7,2.3,10,7
	c-3,4.7-6.3,7-10,7s-7-2.3-10-7C37,269.8,40.4,267.5,44,267.5z"/>
<g>
	<path class="st5" d="M58-0.5v28H30v-28H58 M59-1.5h-1H30h-1v1v28v1h1h28h1v-1v-28V-1.5L59-1.5z"/>
</g>
<g>
	<path class="st5" d="M58,28.5v28H30v-28H58 M59,27.5h-1H30h-1v1v28v1h1h28h1v-1v-28V27.5L59,27.5z"/>
</g>
<g>
	<path class="st5" d="M58,57.5v28H30v-28H58 M59,56.5h-1H30h-1v1v28v1h1h28h1v-1v-28V56.5L59,56.5z"/>
</g>
<g>
	<path class="st5" d="M58,86.5v28H30v-28H58 M59,85.5h-1H30h-1v1v28v1h1h28h1v-1v-28V85.5L59,85.5z"/>
</g>
<g>
	<path class="st5" d="M58,115.5v28H30v-28H58 M59,114.5h-1H30h-1v1v28v1h1h28h1v-1v-28V114.5L59,114.5z"/>
</g>
<g>
	<path class="st5" d="M58,144.5v28H30v-28H58 M59,143.5h-1H30h-1v1v28v1h1h28h1v-1v-28V143.5L59,143.5z"/>
</g>
<g>
	<path class="st5" d="M58,173.5v28H30v-28H58 M59,172.5h-1H30h-1v1v28v1h1h28h1v-1v-28V172.5L59,172.5z"/>
</g>
<g>
	<path class="st5" d="M58,202.5v28H30v-28H58 M59,201.5h-1H30h-1v1v28v1h1h28h1v-1v-28V201.5L59,201.5z"/>
</g>
<g>
	<path class="st5" d="M58,231.5v28H30v-28H58 M59,230.5h-1H30h-1v1v28v1h1h28h1v-1v-28V230.5L59,230.5z"/>
</g>
<g>
	<path class="st5" d="M58,260.5v28H30v-28H58 M59,259.5h-1H30h-1v1v28v1h1h28h1v-1v-28V259.5L59,259.5z"/>
</g>
<g>
	<path class="st5" d="M58,289.5v28H30v-28H58 M59,288.5h-1H30h-1v1v28v1h1h28h1v-1v-28V288.5L59,288.5z"/>
</g>
<g>
	<path class="st5" d="M58,318.5v28H30v-28H58 M59,317.5h-1H30h-1v1v28v1h1h28h1v-1v-28V317.5L59,317.5z"/>
</g>
<g>
	<path class="st5" d="M58,347.5v28H30v-28H58 M59,346.5h-1H30h-1v1v28v1h1h28h1v-1v-28V346.5L59,346.5z"/>
</g>
<g>
	<path class="st5" d="M58,376.5v28H30v-28H58 M59,375.5h-1H30h-1v1v28v1h1h28h1v-1v-28V375.5L59,375.5z"/>
</g>
<path class="st5" d="M50.6,354H37.4c-1.1,0-1.9,0.9-1.9,1.9v11.1c0,1.1,0.9,1.9,1.9,1.9h13.2c1.1,0,1.9-0.9,1.9-1.9v-11.1
	C52.5,354.9,51.6,354,50.6,354z M40.4,365.8h-3v-1h3V365.8z M40.4,363.9h-3v-1h3V363.9z M40.4,361.9h-3v-1h3V361.9z M40.4,359.9h-3
	v-1h3V359.9z M40.4,357.9h-3v-1h3V357.9z M50.4,365.8h-8v-1h8V365.8z M50.4,363.9h-8v-1h8V363.9z M50.4,361.9h-8v-1h8V361.9z
	 M50.4,359.9h-8v-1h8V359.9z M50.4,357.9h-8v-1h8V357.9z"/>
<path d="M14,412.7c-3.9,0-7,3.1-7,7c0,3.9,3.1,7,7,7c3.9,0,7-3.1,7-7C21,415.8,17.9,412.7,14,412.7z M14.7,424h-2v-1.6h2V424z
	 M16.5,419.3c-0.3,0.4-0.7,0.7-1.1,1c-0.2,0.2-0.4,0.3-0.5,0.5s-0.1,0.4-0.1,0.8h-2c0-0.5,0.1-1,0.3-1.2s0.5-0.6,1-0.9
	c0.3-0.2,0.5-0.4,0.6-0.6s0.2-0.5,0.2-0.8c0-0.3-0.1-0.6-0.3-0.8s-0.4-0.3-0.8-0.3c-0.3,0-0.5,0.1-0.7,0.2s-0.3,0.4-0.3,0.7h-1.9
	l0,0c0-0.8,0.2-1.4,0.8-1.8s1.2-0.6,2.1-0.6c0.9,0,1.7,0.2,2.2,0.7s0.8,1.1,0.8,1.9C16.9,418.5,16.8,418.9,16.5,419.3z"/>
<path class="st5" d="M44,412.7c-3.9,0-7,3.1-7,7c0,3.9,3.1,7,7,7c3.9,0,7-3.1,7-7C51,415.8,47.9,412.7,44,412.7z M44.7,424h-2v-1.6
	h2V424z M46.5,419.3c-0.3,0.4-0.7,0.7-1.1,1c-0.2,0.2-0.4,0.3-0.5,0.5s-0.1,0.4-0.1,0.8h-2c0-0.5,0.1-1,0.3-1.2s0.5-0.6,1-0.9
	c0.3-0.2,0.5-0.4,0.6-0.6s0.2-0.5,0.2-0.8c0-0.3-0.1-0.6-0.3-0.8s-0.4-0.3-0.8-0.3c-0.3,0-0.5,0.1-0.7,0.2s-0.3,0.4-0.3,0.7h-1.9
	l0,0c0-0.8,0.2-1.4,0.8-1.8s1.2-0.6,2.1-0.6c0.9,0,1.7,0.2,2.2,0.7s0.8,1.1,0.8,1.9C46.9,418.5,46.8,418.9,46.5,419.3z"/>
</svg>