<?xml version="1.0" encoding="UTF-8"?>
<svg id="Layer_2" data-name="Layer 2" xmlns="http://www.w3.org/2000/svg" width="100" height="100" viewBox="0 0 100 100">
  <defs>
    <style>
      .cls-1 {
        fill: #fff;
      }

      .cls-2 {
        fill: #2daae1;
      }
    </style>
  </defs>
  <g id="Layer_1-2" data-name="Layer 1">
    <circle class="cls-2" cx="50" cy="50" r="50"/>
    <path class="cls-1" d="m82.06,30.11c-2.36,1.05-4.89,1.75-7.55,2.07,2.72-1.63,4.8-4.21,5.78-7.28-2.58,1.53-5.41,2.61-8.35,3.19-2.4-2.56-5.82-4.15-9.6-4.15-7.26,0-13.15,5.89-13.15,13.15,0,1.03.12,2.03.34,3-10.93-.55-20.62-5.79-27.11-13.74-1.13,1.94-1.78,4.2-1.78,6.61,0,4.56,2.32,8.59,5.85,10.95-2.09-.06-4.13-.63-5.96-1.64v.17c0,6.37,4.53,11.69,10.55,12.9-1.11.3-2.27.46-3.47.46-.85,0-1.67-.08-2.48-.23,1.67,5.22,6.53,9.03,12.29,9.13-4.5,3.53-10.17,5.63-16.33,5.63-1.06,0-2.11-.06-3.14-.19,5.82,3.73,12.73,5.91,20.16,5.91,24.19,0,37.42-20.04,37.42-37.42,0-.57-.01-1.14-.04-1.7,2.58-1.86,4.8-4.17,6.57-6.82h0Z"/>
  </g>
</svg>