<?xml version="1.0" encoding="utf-8"?>
<!-- Generator: Adobe Illustrator 26.3.1, SVG Export Plug-In . SVG Version: 6.00 Build 0)  -->
<svg version="1.1" id="Layer_1" xmlns="http://www.w3.org/2000/svg" xmlns:xlink="http://www.w3.org/1999/xlink" x="0px" y="0px"
	 width="60px" height="175.7px" viewBox="0 0 60 175.7" style="enable-background:new 0 0 60 175.7;" xml:space="preserve">
<style type="text/css">
	.st0{display:none;fill:#636363;}
	.st1{fill:#FFFFFF;}
	.st2{fill:none;stroke:#000000;stroke-miterlimit:10;}
	.st3{clip-path:url(#SVGID_00000047027930035704853270000016497537508989218212_);fill:#398DFF;}
	.st4{fill:none;stroke:#FFFFFF;stroke-miterlimit:10;}
	.st5{clip-path:url(#SVGID_00000008857745777037624590000018025890383087454884_);fill:#398DFF;}
	.st6{clip-path:url(#SVGID_00000163784762347677105320000012316417866341048732_);}
	.st7{clip-path:url(#SVGID_00000152960632988187137490000007204174811405051027_);}
	.st8{clip-path:url(#SVGID_00000003810154513186449240000014301452778805129105_);fill:#FFFFFF;}
	.st9{clip-path:url(#SVGID_00000152266527512011696460000002728059699716230798_);fill:#FFFFFF;}
</style>
<g id="Layer_1_00000076599825764026164310000009497844907689902521_">
	<rect x="-56.4" y="-31.5" class="st0" width="259" height="665"/>
</g>
<g>
	<path d="M29,1v28H1V1H29 M30,0h-1H1H0v1v28v1h1h28h1v-1V1V0L30,0z"/>
</g>
<g>
	<path d="M29,30v28H1V30H29 M30,29h-1H1H0v1v28v1h1h28h1v-1V30V29L30,29z"/>
</g>
<g>
	<path d="M29,59v28H1V59H29 M30,58h-1H1H0v1v28v1h1h28h1v-1V59V58L30,58z"/>
</g>
<g>
	<path d="M29,88v28H1V88H29 M30,87h-1H1H0v1v28v1h1h28h1v-1V88V87L30,87z"/>
</g>
<g>
	<path class="st1" d="M59,1v28H31V1H59 M60,0h-1H31h-1v1v28v1h1h28h1v-1V1V0L60,0z"/>
</g>
<g>
	<path class="st1" d="M59,30v28H31V30H59 M60,29h-1H31h-1v1v28v1h1h28h1v-1V30V29L60,29z"/>
</g>
<g>
	<path class="st1" d="M59,59v28H31V59H59 M60,58h-1H31h-1v1v28v1h1h28h1v-1V59V58L60,58z"/>
</g>
<g>
	<path class="st1" d="M59,88v28H31V88H59 M60,87h-1H31h-1v1v28v1h1h28h1v-1V88V87L60,87z"/>
</g>
<g>
	<path d="M29,117v28H1v-28H29 M30,116h-1H1H0v1v28v1h1h28h1v-1v-28V116L30,116z"/>
</g>
<g>
	<path class="st1" d="M59,117v28H31v-28H59 M60,116h-1H31h-1v1v28v1h1h28h1v-1v-28V116L60,116z"/>
</g>
<g>
	<path d="M29,146v28H1v-28H29 M30,145h-1H1H0v1v28v1h1h28h1v-1v-28V145L30,145z"/>
</g>
<g>
	<path class="st1" d="M59,146v28H31v-28H59 M60,145h-1H31h-1v1v28v1h1h28h1v-1v-28V145L60,145z"/>
</g>
<path class="st2" d="M25,8c-1.8,6.1-4,9.1-6.5,9.1c-3.7,0-3.9-5-7.5-5s-3.8,7.4-5.6,9.3c0,0.2-0.2,0.4-0.4,0.6"/>
<g>
	<g>
		<defs>
			<polygon id="SVGID_1_" points="15,35 18,40.9 24.6,41.9 19.8,46.5 21,53 15,49.9 9,53 10.2,46.5 5.4,41.9 12,40.9 			"/>
		</defs>
		<clipPath id="SVGID_00000109025226457151789120000005589539788264173499_">
			<use xlink:href="#SVGID_1_"  style="overflow:visible;"/>
		</clipPath>
		
			<rect x="4.6" y="34.3" style="clip-path:url(#SVGID_00000109025226457151789120000005589539788264173499_);fill:#398DFF;" width="20.7" height="19.5"/>
	</g>
</g>
<g>
	<path d="M10.1,95H7.4c-0.6,0-1,0.4-1,1v1.7v1.6v5.5v1.6v1.7c0,0.6,0.4,1,1,1h2.7c0.6,0,1-0.4,1-1v-1.7v-1.6v-5.5v-1.6V96
		C11.1,95.4,10.7,95,10.1,95z M10.1,108H7.4v-1.7h2.7V108z M10.1,104.7H7.4v-5.5h2.7V104.7z M10.1,97.7H7.4V96h2.7l0,0V97.7z"/>
	<path d="M16.3,95h-2.7c-0.6,0-1,0.4-1,1v1.7v1.6v5.5v1.6v1.7c0,0.6,0.4,1,1,1h2.7c0.6,0,1-0.4,1-1v-1.7v-1.6v-5.5v-1.6V96
		C17.3,95.4,16.9,95,16.3,95z M16.3,108h-2.7v-1.7h2.7V108z M16.3,104.7h-2.7v-5.5h2.7V104.7z M16.3,97.7h-2.7V96h2.7l0,0V97.7z"/>
	<path d="M22.6,95h-2.7c-0.6,0-1,0.4-1,1v1.7v1.6v5.5v1.6v1.7c0,0.6,0.4,1,1,1h2.7c0.6,0,1-0.4,1-1v-1.7v-1.6v-5.5v-1.6V96
		C23.6,95.4,23.1,95,22.6,95z M22.6,108h-2.7v-1.7h2.7V108z M22.6,104.7h-2.7v-5.5h2.7V104.7z M22.6,97.7h-2.7V96h2.7l0,0V97.7z"/>
</g>
<g>
	<g>
		<path d="M9.9,67.3c0.8,0,1.4,0.6,1.4,1.4s-0.6,1.4-1.4,1.4s-1.4-0.6-1.4-1.4C8.4,68,9.1,67.3,9.9,67.3 M9.9,66.3
			c-1.3,0-2.4,1.1-2.4,2.4s1.1,2.4,2.4,2.4s2.4-1.1,2.4-2.4C12.3,67.4,11.2,66.3,9.9,66.3L9.9,66.3z"/>
	</g>
	<g>
		<path d="M20.1,67.3c0.8,0,1.4,0.6,1.4,1.4s-0.6,1.4-1.4,1.4s-1.4-0.6-1.4-1.4C18.7,68,19.3,67.3,20.1,67.3 M20.1,66.3
			c-1.3,0-2.4,1.1-2.4,2.4s1.1,2.4,2.4,2.4s2.4-1.1,2.4-2.4C22.6,67.4,21.5,66.3,20.1,66.3L20.1,66.3z"/>
	</g>
	<path d="M11.4,79.7v-4.4c0-1,0.8-1.9,1.9-1.9h3.4c1,0,1.9,0.8,1.9,1.9v4.4H11.4z"/>
	<g>
		<path d="M10.9,75.2c0-1.2,1-2.2,2.2-2.2c-0.2-0.6-0.8-1-1.4-1H8.2c-0.9,0-1.6,0.7-1.6,1.6v4.1h4.2v-2.5H10.9z"/>
	</g>
	<g>
		<path d="M15,69c0.8,0,1.4,0.6,1.4,1.4s-0.6,1.4-1.4,1.4s-1.4-0.6-1.4-1.4S14.2,69,15,69 M15,68c-1.3,0-2.4,1.1-2.4,2.4
			s1.1,2.4,2.4,2.4s2.4-1.1,2.4-2.4S16.3,68,15,68L15,68z"/>
	</g>
	<g>
		<path d="M21.8,72h-3.4c-0.7,0-1.2,0.4-1.4,1c1.2,0,2.2,1,2.2,2.2v2.5h4.2v-4.1C23.4,72.7,22.7,72,21.8,72z"/>
	</g>
</g>
<path class="st4" d="M55,8c-1.8,6.1-4,9.1-6.5,9.1c-3.7,0-3.9-5-7.5-5s-3.8,7.4-5.6,9.3c-0.1,0.1-0.3,0.3-0.5,0.5"/>
<g>
	<g>
		<defs>
			<polygon id="SVGID_00000178919740070378238910000007054395556760321975_" points="45,35 48,40.9 54.6,41.9 49.8,46.5 51,53 
				45,49.9 39,53 40.2,46.5 35.4,41.9 42,40.9 			"/>
		</defs>
		<clipPath id="SVGID_00000143617837095446990980000001246799870724019127_">
			<use xlink:href="#SVGID_00000178919740070378238910000007054395556760321975_"  style="overflow:visible;"/>
		</clipPath>
		
			<rect x="34.6" y="34.3" style="clip-path:url(#SVGID_00000143617837095446990980000001246799870724019127_);fill:#398DFF;" width="20.7" height="19.5"/>
	</g>
</g>
<g>
	<path class="st1" d="M40.1,95h-2.7c-0.6,0-1,0.4-1,1v1.7v1.6v5.5v1.6v1.7c0,0.6,0.4,1,1,1h2.7c0.6,0,1-0.4,1-1v-1.7v-1.6v-5.5v-1.6
		V96C41.1,95.4,40.7,95,40.1,95z M40.1,108h-2.7v-1.7h2.7V108z M40.1,104.7h-2.7v-5.5h2.7V104.7z M40.1,97.7h-2.7V96h2.7l0,0V97.7z"
		/>
	<path class="st1" d="M46.3,95h-2.7c-0.6,0-1,0.4-1,1v1.7v1.6v5.5v1.6v1.7c0,0.6,0.4,1,1,1h2.7c0.6,0,1-0.4,1-1v-1.7v-1.6v-5.5v-1.6
		V96C47.3,95.4,46.9,95,46.3,95z M46.3,108h-2.7v-1.7h2.7V108z M46.3,104.7h-2.7v-5.5h2.7V104.7z M46.3,97.7h-2.7V96h2.7l0,0V97.7z"
		/>
	<path class="st1" d="M52.6,95h-2.7c-0.6,0-1,0.4-1,1v1.7v1.6v5.5v1.6v1.7c0,0.6,0.4,1,1,1h2.7c0.6,0,1-0.4,1-1v-1.7v-1.6v-5.5v-1.6
		V96C53.6,95.4,53.1,95,52.6,95z M52.6,108h-2.7v-1.7h2.7V108z M52.6,104.7h-2.7v-5.5h2.7V104.7z M52.6,97.7h-2.7V96h2.7l0,0V97.7z"
		/>
</g>
<g>
	<g>
		<path class="st1" d="M39.9,67.3c0.8,0,1.4,0.6,1.4,1.4s-0.6,1.4-1.4,1.4s-1.4-0.6-1.4-1.4C38.4,68,39.1,67.3,39.9,67.3 M39.9,66.3
			c-1.3,0-2.4,1.1-2.4,2.4s1.1,2.4,2.4,2.4c1.3,0,2.4-1.1,2.4-2.4C42.3,67.4,41.2,66.3,39.9,66.3L39.9,66.3z"/>
	</g>
	<g>
		<path class="st1" d="M50.1,67.3c0.8,0,1.4,0.6,1.4,1.4s-0.6,1.4-1.4,1.4s-1.4-0.6-1.4-1.4C48.7,68,49.3,67.3,50.1,67.3 M50.1,66.3
			c-1.3,0-2.4,1.1-2.4,2.4s1.1,2.4,2.4,2.4c1.3,0,2.4-1.1,2.4-2.4C52.6,67.4,51.5,66.3,50.1,66.3L50.1,66.3z"/>
	</g>
	<path class="st1" d="M41.4,79.7v-4.4c0-1,0.8-1.9,1.9-1.9h3.4c1,0,1.9,0.8,1.9,1.9v4.4H41.4z"/>
	<g>
		<path class="st1" d="M40.9,75.2c0-1.2,1-2.2,2.2-2.2c-0.2-0.6-0.8-1-1.4-1h-3.4c-0.9,0-1.6,0.7-1.6,1.6v4.1h4.2V75.2z"/>
	</g>
	<g>
		<path class="st1" d="M45,69c0.8,0,1.4,0.6,1.4,1.4s-0.6,1.4-1.4,1.4s-1.4-0.6-1.4-1.4S44.2,69,45,69 M45,68
			c-1.3,0-2.4,1.1-2.4,2.4s1.1,2.4,2.4,2.4s2.4-1.1,2.4-2.4S46.3,68,45,68L45,68z"/>
	</g>
	<g>
		<path class="st1" d="M51.8,72h-3.4c-0.7,0-1.2,0.4-1.4,1c1.2,0,2.2,1,2.2,2.2v2.5h4.2v-4.1C53.4,72.7,52.7,72,51.8,72z"/>
	</g>
</g>
<g>
	<g>
		<defs>
			<path id="SVGID_00000043452344954508696600000011844582162091129273_" d="M15,122.8c4.6,0,8.2,3.7,8.2,8.2s-3.7,8.2-8.2,8.2
				s-8.2-3.7-8.2-8.2S10.4,122.8,15,122.8z M15,121.2c-5.4,0-9.8,4.4-9.8,9.8s4.4,9.8,9.8,9.8s9.8-4.4,9.8-9.8S20.4,121.2,15,121.2z
				"/>
		</defs>
		<use xlink:href="#SVGID_00000043452344954508696600000011844582162091129273_"  style="overflow:visible;"/>
		<clipPath id="SVGID_00000089563711855495182930000014781837270005888666_">
			<use xlink:href="#SVGID_00000043452344954508696600000011844582162091129273_"  style="overflow:visible;"/>
		</clipPath>
		
			<rect x="4.2" y="120.2" style="clip-path:url(#SVGID_00000089563711855495182930000014781837270005888666_);" width="21.5" height="21.5"/>
	</g>
	<g>
		<defs>
			<path id="SVGID_00000105427476852119449020000003026700773743834497_" d="M14.1,126v1.8H16V126H14.1z M14.1,129.5v6.5H16v-6.5
				H14.1z"/>
		</defs>
		<use xlink:href="#SVGID_00000105427476852119449020000003026700773743834497_"  style="overflow:visible;"/>
		<clipPath id="SVGID_00000110441889293070798180000012841217438465610422_">
			<use xlink:href="#SVGID_00000105427476852119449020000003026700773743834497_"  style="overflow:visible;"/>
		</clipPath>
		
			<rect x="13.1" y="125" style="clip-path:url(#SVGID_00000110441889293070798180000012841217438465610422_);" width="3.9" height="12"/>
	</g>
</g>
<g>
	<g>
		<defs>
			<path id="SVGID_00000141444930137132525240000015656863579489853622_" d="M45,122.8c4.6,0,8.2,3.7,8.2,8.2s-3.7,8.2-8.2,8.2
				s-8.2-3.7-8.2-8.2S40.4,122.8,45,122.8z M45,121.2c-5.4,0-9.8,4.4-9.8,9.8s4.4,9.8,9.8,9.8s9.8-4.4,9.8-9.8S50.4,121.2,45,121.2z
				"/>
		</defs>
		<use xlink:href="#SVGID_00000141444930137132525240000015656863579489853622_"  style="overflow:visible;fill:#FFFFFF;"/>
		<clipPath id="SVGID_00000049190474489804987290000007254945937011267761_">
			<use xlink:href="#SVGID_00000141444930137132525240000015656863579489853622_"  style="overflow:visible;"/>
		</clipPath>
		
			<rect x="34.2" y="120.2" style="clip-path:url(#SVGID_00000049190474489804987290000007254945937011267761_);fill:#FFFFFF;" width="21.5" height="21.5"/>
	</g>
	<g>
		<defs>
			<path id="SVGID_00000019671711427943800790000014078158933215169163_" d="M44.1,126v1.8H46V126H44.1z M44.1,129.5v6.5H46v-6.5
				H44.1z"/>
		</defs>
		<use xlink:href="#SVGID_00000019671711427943800790000014078158933215169163_"  style="overflow:visible;fill:#FFFFFF;"/>
		<clipPath id="SVGID_00000137828297042800795690000001373233095849906860_">
			<use xlink:href="#SVGID_00000019671711427943800790000014078158933215169163_"  style="overflow:visible;"/>
		</clipPath>
		
			<rect x="43.1" y="125" style="clip-path:url(#SVGID_00000137828297042800795690000001373233095849906860_);fill:#FFFFFF;" width="3.9" height="12"/>
	</g>
</g>
<g>
	<polyline class="st2" points="14.7,166 9.2,160 14.7,154 	"/>
	<line class="st2" x1="20.8" y1="160" x2="9.8" y2="160"/>
</g>
<g>
	<polyline class="st4" points="44.7,166 39.2,160 44.7,154 	"/>
	<line class="st4" x1="50.8" y1="160" x2="39.8" y2="160"/>
</g>
</svg>
